<svg viewBox="0 0 788 1104" preserveAspectRatio="xMinYMin meet" version="1.1" xmlns="http://www.w3.org/2000/svg">
    <defs>
        <filter x="-0.9%" y="-0.5%" width="101.8%" height="101.3%" filterUnits="objectBoundingBox" id="filter-1">
            <feOffset dx="0" dy="2" in="SourceAlpha" result="shadowOffsetOuter1"></feOffset>
            <feGaussianBlur stdDeviation="2" in="shadowOffsetOuter1" result="shadowBlurOuter1"></feGaussianBlur>
            <feColorMatrix values="0 0 0 0 0   0 0 0 0 0   0 0 0 0 0  0 0 0 0.5 0" type="matrix" in="shadowBlurOuter1" result="shadowMatrixOuter1"></feColorMatrix>
            <feMerge>
                <feMergeNode in="shadowMatrixOuter1"></feMergeNode>
                <feMergeNode in="SourceGraphic"></feMergeNode>
            </feMerge>
        </filter>
    </defs>
    <g id="Page-1" stroke="none" stroke-width="1" fill="none" fill-rule="evenodd">
        <g id="London-Smokehouse_Logo_RGB" filter="url(#filter-1)" transform="translate(4.000000, 2.000000)" fill="#FFFFFF">
            <polyline id="Fill-1" points="394.874 1005.13 390 995.252 385.126 1005.13 374.228 1006.71 382.114 1014.4 380.252 1025.25 390 1020.13 399.748 1025.25 397.886 1014.4 405.772 1006.71 394.874 1005.13"></polyline>
            <polyline id="Fill-2" points="385.126 76.128 374.228 77.711 382.114 85.398 380.252 96.252 390 91.128 399.748 96.252 397.886 85.398 405.772 77.711 394.874 76.128 390 66.252 385.126 76.128"></polyline>
            <path d="M772,864.964 L390,1086.75 L8,864.964 L8,231.541 L390,9.751 L772,231.541 L772,864.964 Z M392.008,1.667 L390,0.5 L0,226.935 L0,869.57 L390,1096 L780,869.57 L780,226.935 L392.008,1.667 L392.008,1.667 Z" id="Fill-3"></path>
            <path d="M754,854.601 L390,1065.94 L26,854.601 L26,241.903 L390,30.564 L754,241.903 L754,854.601 Z M22,239.601 L22,856.904 L390,1070.56 L757.004,857.482 L758,856.904 L758,239.601 L390,25.939 L22,239.601 L22,239.601 Z" id="Fill-4"></path>
            <polygon id="Fill-5" points="142 609.252 145 609.252 145 503.252 142 503.252"></polygon>
            <polyline id="Fill-6" points="124 633.252 124 636.252 179 636.252 179 617.252 177 617.252 177 633.252 124 633.252"></polyline>
            <polyline id="Fill-7" points="172 628.252 172 614.252 136 614.252 136 500.252 121 500.252 121 628.252 172 628.252"></polyline>
            <path d="M231.853,518.332 C227.863,518.332 224,519.561 224,528.676 L224,600.353 C224,605.318 224.842,607.94 226.589,609.302 C226.446,608.244 226,607.092 226,605.833 L226,534.156 C226,524.675 230.407,521.072 237.044,521.072 C237.348,521.072 237.806,521.082 238.1,521.098 C236.542,518.777 234.247,518.332 231.853,518.332" id="Fill-8"></path>
            <path d="M269,604.505 L269,535.483 C269,527.289 267.198,520.457 263.976,515.147 C265.392,519.499 266,524.463 266,530.003 L266,599.025 C266,621.976 253.562,635.139 231.696,635.139 C226.938,635.139 222.674,634.514 218.833,633.302 C223.706,636.301 229.915,637.879 237.28,637.879 C257.76,637.879 269,625.743 269,604.505" id="Fill-9"></path>
            <path d="M229.494,616.042 C229.491,616.038 229.81,616.036 229.806,616.032 C220.101,614.81 219,605.851 219,600.353 L219,528.676 C219,515.597 225.993,512.852 232.174,512.852 C237.497,512.852 243.474,514.895 245.093,523.816 C247.109,525.887 248.089,529.225 248.089,534.156 C248.089,529.225 246.784,525.887 244.768,523.816 C245.028,525.253 245,526.862 245,528.676 L245,600.353 C245,606.262 243.414,616.177 231.626,616.177 C230.84,616.177 230.191,616.126 229.494,616.042 Z M237.383,501.252 C239.091,501.252 240.723,501.406 242.291,501.654 C240.719,501.406 239.083,501.252 237.377,501.252 L237.383,501.252 Z M237.244,618.252 L237.241,618.252 C243.874,618.252 248.017,614.647 248.017,605.168 C248.017,614.65 243.881,618.252 237.244,618.252 Z M253.455,621.798 C258.37,616.577 261,608.916 261,599.025 L261,530.003 C261,520.113 258.37,512.451 253.455,507.231 C252.202,505.901 250.728,504.312 249.177,503.317 C249.165,503.314 249.154,503.31 249.142,503.307 C244.611,500.409 238.795,499.155 231.825,499.155 C222.459,499.155 215.27,501.907 210.358,507.123 C205.442,512.344 203,520.113 203,530.003 L203,599.025 C203,606.691 204.547,613.008 207.51,617.897 C207.545,618.008 207.593,618.124 207.628,618.234 C208.438,619.524 209.304,620.716 210.323,621.798 C215.235,627.014 222.523,629.659 231.889,629.659 C241.256,629.659 248.543,627.014 253.455,621.798 L253.455,621.798 Z" id="Fill-10"></path>
            <polyline id="Fill-11" points="345.932 636.252 368 636.252 368 503.252 365 503.252 365 633.252 345.192 633.252 345.932 636.252"></polyline>
            <polyline id="Fill-12" points="317 633.252 301 633.252 301 636.252 320 636.252 320 565.527 317 555.387 317 633.252"></polyline>
            <polyline id="Fill-13" points="327.35 503.252 326.185 503.252 340 556.915 340 552.599 327.35 503.252"></polyline>
            <polyline id="Fill-14" points="319.77 500.252 298 500.252 298 628.252 311 628.252 311 514.1 319.512 544.625 342.55 628.252 359 628.252 359 500.252 346 500.252 346 598.281 320.455 503.319 319.77 500.252"></polyline>
            <path d="M428.435,520.252 L420,520.252 L420,609.252 L423,609.252 L423,523.252 L433.915,523.252 C434.213,523.252 434.504,523.132 434.792,523.146 C433.42,520.975 431.198,520.252 428.435,520.252" id="Fill-15"></path>
            <path d="M454.364,624.127 C448.608,630.305 439.897,633.252 428.814,633.252 L401,633.252 L401,636.252 L434.294,636.252 C455.152,636.252 465,624.795 465,603.557 L465,536.431 C465,528.015 463.755,521.124 460.515,515.863 C461.921,520.237 463,525.276 463,530.951 L463,598.077 C463,609.457 459.979,618.099 454.364,624.127" id="Fill-16"></path>
            <path d="M442,599.025 C442,606.158 439.476,614.252 428.435,614.252 L414,614.252 L414,514.252 L428.435,514.252 C433.67,514.252 439.871,516.319 441.487,525.073 C441.539,525.125 441.584,525.268 441.634,525.321 C441.869,526.689 442,528.295 442,530.003 L442,599.025 Z M446.518,505.235 C446.482,505.224 446.363,504.888 446.327,504.878 C441.881,502.024 435.964,500.252 428.814,500.252 L399,500.252 L399,628.252 L428.814,628.252 C438.314,628.252 445.917,625.652 450.594,620.631 C455.233,615.651 458,608.026 458,598.077 L458,530.951 C458,521.002 455.233,513.433 450.594,508.453 C449.454,507.229 447.954,506.164 446.518,505.235 L446.518,505.235 Z" id="Fill-17"></path>
            <path d="M522.145,518.332 C518.156,518.332 514,519.561 514,528.676 L514,600.353 C514,605.318 515.342,607.94 517.089,609.302 C516.946,608.244 517,607.092 517,605.833 L517,534.156 C517,524.675 521.061,521.072 527.698,521.072 C528.001,521.072 528.183,521.082 528.477,521.098 C526.919,518.777 524.539,518.332 522.145,518.332" id="Fill-18"></path>
            <path d="M522.35,635.139 C517.592,635.139 513.155,634.514 509.313,633.302 C514.187,636.301 520.656,637.879 528.021,637.879 C548.5,637.879 560,625.743 560,604.505 L560,535.483 C560,527.289 558.198,520.457 554.976,515.147 C556.392,519.499 557,524.463 557,530.003 L557,599.025 C557,621.976 544.216,635.139 522.35,635.139" id="Fill-19"></path>
            <path d="M536,600.353 C536,606.262 534.067,616.177 522.279,616.177 C521.458,616.177 520.604,615.792 519.878,615.7 C521.745,617.711 524.362,618.252 527.623,618.252 L527.617,618.252 C524.356,618.252 521.396,617.711 519.528,615.7 C509.823,614.478 508,605.851 508,600.353 L508,528.676 C508,515.597 515.647,512.852 521.827,512.852 C527.151,512.852 533.521,514.895 535.14,523.816 C535.177,523.855 535.394,523.897 535.431,523.937 C535.678,525.344 536,526.911 536,528.676 L536,600.353 Z M495.746,532.662 C496.428,512.642 507.644,501.252 527.483,501.252 L527.485,501.252 C507.647,501.252 496.428,512.642 495.746,532.662 Z M539.407,503.746 C539.371,503.735 539.341,503.726 539.305,503.715 C534.779,500.83 529.03,499.37 522.077,499.37 C512.71,499.37 505.395,502.014 500.483,507.231 C495.568,512.451 493,520.113 493,530.003 L493,599.025 C493,606.867 494.559,613.301 497.658,618.234 C496.384,614.214 495.72,609.627 495.72,604.505 C495.72,609.627 496.477,614.214 497.752,618.234 C498.561,619.524 499.52,620.716 500.538,621.798 C505.45,627.014 512.725,629.659 522.092,629.659 C531.458,629.659 538.696,627.014 543.608,621.798 C548.524,616.577 551,608.916 551,599.025 L551,530.003 C551,520.113 548.524,512.451 543.608,507.231 C542.356,505.901 540.958,504.74 539.407,503.746 L539.407,503.746 Z" id="Fill-20"></path>
            <polyline id="Fill-21" points="636.239 636.252 658 636.252 658 503.252 655 503.252 655 633.252 635.499 633.252 636.239 636.252"></polyline>
            <polyline id="Fill-22" points="591 633.252 591 636.252 610 636.252 610 565.527 607 555.387 607 633.252 591 633.252"></polyline>
            <polyline id="Fill-23" points="617.656 503.252 616.492 503.252 631 556.915 631 552.599 617.656 503.252"></polyline>
            <polyline id="Fill-24" points="610.077 500.252 589 500.252 589 628.252 602 628.252 602 514.1 610.233 544.625 632.857 628.252 649 628.252 649 500.252 637 500.252 637 598.281 611.042 503.319 610.077 500.252"></polyline>
            <path d="M140.84,748.473 C139.109,748.473 137.744,747.863 136.745,746.566 C135.744,745.268 135.245,743.252 135.245,741.252 L121,741.252 L121,742.959 C121,745.608 121.648,747.987 122.568,750.095 C123.486,752.203 124.892,754.001 126.595,755.487 C128.298,756.974 130.399,758.11 132.805,758.893 C135.21,759.676 137.95,760.069 140.978,760.069 C146.91,760.069 151.54,758.623 154.844,755.73 C158.148,752.839 159.808,748.771 159.808,743.527 C159.808,740.014 158.85,737.054 156.932,734.648 C155.013,732.243 151.785,730.013 147.244,727.958 L140.596,724.958 C137.514,723.553 135.974,721.769 135.974,719.607 C135.974,718.471 136.451,717.498 137.405,716.688 C138.359,715.877 139.49,715.471 140.798,715.471 C142.27,715.471 143.4,715.672 144.191,716.483 C144.981,717.294 145.512,719.252 145.786,720.252 L159.408,720.252 C159.299,719.252 159.178,718.024 159.043,717.051 C158.908,716.078 158.705,715.288 158.435,714.477 C158.164,713.666 157.813,712.961 157.381,712.258 C156.948,711.556 156.408,710.824 155.759,710.013 C154.191,708.121 152.097,706.634 149.475,705.525 C146.853,704.418 144.083,703.869 141.164,703.869 C138.515,703.869 136.028,704.278 133.704,705.089 C131.379,705.9 129.366,707.024 127.663,708.456 C125.96,709.888 124.622,711.578 123.649,713.524 C122.676,715.47 122.19,717.579 122.19,719.849 C122.19,722.012 122.678,724.08 123.654,726.053 C124.63,728.027 125.959,729.689 127.642,731.039 C128.563,731.797 129.566,732.486 130.651,733.107 C131.735,733.729 132.902,734.311 134.15,734.851 C134.583,735.067 135.33,735.378 136.387,735.783 C137.444,736.189 138.787,736.744 140.415,737.445 C142.475,738.256 143.954,739.122 144.848,740.04 C145.743,740.96 146.191,742.041 146.191,743.284 C146.191,744.743 145.677,745.973 144.651,746.973 C143.623,747.974 142.352,748.473 140.84,748.473" id="Fill-25"></path>
            <polyline id="Fill-26" points="227 759.252 227 705.252 209.032 705.252 198.329 740.849 187.625 705.252 170 705.252 170 759.252 182.517 759.252 182.112 718.628 193.788 759.252 202.951 759.252 214.627 718.628 214.141 759.252 227 759.252"></polyline>
            <path d="M252.007,725.566 C252.763,723.648 253.791,721.986 255.088,720.579 C256.385,719.175 257.939,718.066 259.75,717.255 C261.561,716.444 263.521,716.039 265.629,716.039 C267.737,716.039 269.683,716.444 271.467,717.255 C273.251,718.066 274.804,719.201 276.13,720.661 C277.454,722.12 278.494,723.823 279.252,725.769 C280.008,727.715 280.387,729.823 280.387,732.094 C280.387,734.311 280.008,736.391 279.252,738.337 C278.494,740.284 277.468,741.96 276.17,743.365 C274.873,744.771 273.332,745.878 271.548,746.689 C269.764,747.5 267.845,747.906 265.791,747.906 C263.683,747.906 261.709,747.5 259.872,746.689 C258.034,745.878 256.452,744.757 255.128,743.324 C253.803,741.893 252.763,740.19 252.007,738.216 C251.249,736.243 250.871,734.121 250.871,731.851 C250.871,729.58 251.249,727.486 252.007,725.566 Z M254.277,757.92 C257.736,759.351 261.466,760.069 265.467,760.069 C269.521,760.069 273.292,759.339 276.778,757.879 C280.265,756.419 283.292,754.433 285.86,751.919 C288.427,749.406 290.454,746.446 291.941,743.04 C293.428,739.635 294.171,735.959 294.171,732.013 C294.171,728.067 293.428,724.378 291.941,720.944 C290.454,717.512 288.427,714.539 285.86,712.025 C283.292,709.511 280.265,707.525 276.778,706.065 C273.292,704.606 269.521,703.876 265.467,703.876 C261.466,703.876 257.736,704.593 254.277,706.025 C250.817,707.457 247.817,709.444 245.276,711.985 C242.735,714.526 240.736,717.512 239.276,720.944 C237.817,724.378 237.087,728.094 237.087,732.094 C237.087,736.04 237.817,739.716 239.276,743.122 C240.736,746.527 242.735,749.487 245.276,752 C247.817,754.514 250.817,756.488 254.277,757.92 L254.277,757.92 Z" id="Fill-27"></path>
            <polyline id="Fill-28" points="304 705.252 304 759.252 318 759.252 318 735.662 332.929 759.252 349.147 759.252 330.01 732.212 348.011 705.252 333.497 705.252 318 729.337 318 705.252 304 705.252"></polyline>
            <polyline id="Fill-29" points="390 717.252 390 705.252 360 705.252 360 759.252 390 759.252 390 747.252 373 747.252 373 737.252 389 737.252 389 725.252 373 725.252 373 717.252 390 717.252"></polyline>
            <polyline id="Fill-30" points="404 705.252 404 759.252 418 759.252 418 737.252 436 737.252 436 759.252 449 759.252 449 705.252 436 705.252 436 725.252 418 725.252 418 705.252 404 705.252"></polyline>
            <path d="M474.504,725.566 C475.26,723.648 476.288,721.986 477.585,720.579 C478.883,719.175 480.436,718.066 482.248,717.255 C484.058,716.444 486.018,716.039 488.126,716.039 C490.235,716.039 492.181,716.444 493.965,717.255 C495.748,718.066 497.302,719.201 498.627,720.661 C499.951,722.12 500.991,723.823 501.749,725.769 C502.505,727.715 502.884,729.823 502.884,732.094 C502.884,734.311 502.505,736.391 501.749,738.337 C500.991,740.284 499.965,741.96 498.668,743.365 C497.37,744.771 495.83,745.878 494.046,746.689 C492.262,747.5 490.342,747.906 488.289,747.906 C486.18,747.906 484.206,747.5 482.369,746.689 C480.531,745.878 478.95,744.757 477.626,743.324 C476.301,741.893 475.26,740.19 474.504,738.216 C473.746,736.243 473.369,734.121 473.369,731.851 C473.369,729.58 473.746,727.486 474.504,725.566 Z M476.774,757.92 C480.233,759.351 483.963,760.069 487.964,760.069 C492.019,760.069 495.789,759.339 499.276,757.879 C502.762,756.419 505.789,754.433 508.357,751.919 C510.924,749.406 512.951,746.446 514.439,743.04 C515.925,739.635 516.669,735.959 516.669,732.013 C516.669,728.067 515.925,724.378 514.439,720.944 C512.951,717.512 510.924,714.539 508.357,712.025 C505.789,709.511 502.762,707.525 499.276,706.065 C495.789,704.606 492.019,703.876 487.964,703.876 C483.963,703.876 480.233,704.593 476.774,706.025 C473.314,707.457 470.314,709.444 467.774,711.985 C465.232,714.526 463.233,717.512 461.773,720.944 C460.314,724.378 459.584,728.094 459.584,732.094 C459.584,736.04 460.314,739.716 461.773,743.122 C463.233,746.527 465.232,749.487 467.774,752 C470.314,754.514 473.314,756.488 476.774,757.92 L476.774,757.92 Z" id="Fill-31"></path>
            <path d="M526,705.252 L526,737.689 C526,739.851 526.212,741.73 526.402,743.324 C526.59,744.919 526.947,746.365 527.353,747.662 C527.758,748.96 528.341,750.135 529.044,751.189 C529.746,752.244 530.626,753.285 531.654,754.311 C533.545,756.204 535.797,757.636 538.391,758.609 C540.986,759.582 543.881,760.069 547.071,760.069 C553.449,760.069 558.559,758.122 562.398,754.23 C564.344,752.231 565.848,749.973 566.659,747.46 C567.47,744.946 568,741.69 568,737.689 L568,705.252 L554,705.252 L554,737.689 C554,741.473 553.469,744.122 552.443,745.635 C551.415,747.149 549.623,747.906 547.083,747.906 C544.596,747.906 542.784,747.095 541.677,745.473 C540.568,743.851 540,741.256 540,737.689 L540,705.252 L526,705.252" id="Fill-32"></path>
            <path d="M598.97,748.473 C597.239,748.473 595.875,747.863 594.875,746.566 C593.874,745.268 593.375,743.252 593.375,741.252 L580,741.252 L580,742.959 C580,745.608 580.213,747.987 581.133,750.095 C582.052,752.203 583.24,754.001 584.943,755.487 C586.646,756.974 588.638,758.11 591.044,758.893 C593.449,759.676 596.135,760.069 599.163,760.069 C605.095,760.069 609.697,758.623 613.002,755.73 C616.306,752.839 617.952,748.771 617.952,743.527 C617.952,740.014 616.987,737.054 615.069,734.648 C613.15,732.243 609.918,730.013 605.378,727.958 L598.727,724.958 C595.646,723.553 594.105,721.769 594.105,719.607 C594.105,718.471 594.581,717.498 595.535,716.688 C596.489,715.877 597.621,715.471 598.928,715.471 C600.4,715.471 601.53,715.672 602.321,716.483 C603.112,717.294 603.642,719.252 603.916,720.252 L617.538,720.252 C617.43,719.252 617.308,718.024 617.174,717.051 C617.038,716.078 616.835,715.288 616.565,714.477 C616.294,713.666 615.943,712.961 615.511,712.258 C615.078,711.556 614.538,710.824 613.89,710.013 C612.321,708.121 610.227,706.634 607.605,705.525 C604.983,704.418 602.213,703.869 599.294,703.869 C596.645,703.869 594.158,704.278 591.834,705.089 C589.509,705.9 587.496,707.024 585.793,708.456 C584.091,709.888 582.753,711.578 581.78,713.524 C580.807,715.47 580.32,717.579 580.32,719.849 C580.32,722.012 580.808,724.08 581.785,726.053 C582.76,728.027 584.089,729.689 585.772,731.039 C586.693,731.797 587.696,732.486 588.781,733.107 C589.865,733.729 591.032,734.311 592.28,734.851 C592.714,735.067 593.46,735.378 594.518,735.783 C595.574,736.189 596.917,736.744 598.545,737.445 C600.605,738.256 602.084,739.122 602.978,740.04 C603.873,740.96 604.321,742.041 604.321,743.284 C604.321,744.743 603.807,745.973 602.781,746.973 C601.753,747.974 600.483,748.473 598.97,748.473" id="Fill-33"></path>
            <polyline id="Fill-34" points="658 717.252 658 705.252 628 705.252 628 759.252 658 759.252 658 747.252 641 747.252 641 737.252 658 737.252 658 725.252 641 725.252 641 717.252 658 717.252"></polyline>
            <polyline id="Fill-35" points="449 377.252 658.551 374.252 449 371.252 449 377.252"></polyline>
            <polyline id="Fill-36" points="332 374.252 122.449 377.252 332 380.252 332 374.252"></polyline>
            <polygon id="Fill-37" points="121 787.252 659 787.252 659 783.252 121 783.252"></polygon>
            <polygon id="Fill-38" points="121 680.252 659 680.252 659 676.252 121 676.252"></polygon>
            <path d="M331.342,309.033 L333.353,307.022 L350.279,324.48 L348.534,326.225 L331.342,309.033 Z M344.236,330.523 L327.044,313.331 L329.193,311.182 L346.385,328.374 L344.236,330.523 Z M340.275,334.485 L322.814,317.561 L324.895,315.48 L342.087,332.672 L340.275,334.485 Z M423.664,338.376 L389.953,372.087 L357.129,339.263 L357.696,338.696 L354.428,335.428 L356.979,325.838 L330.114,299.209 L315.189,314.134 L341.572,341.131 L351.206,338.625 L354.486,341.905 L355.054,341.338 L387.878,374.162 L360.866,401.174 L359.027,399.335 L315.982,442.381 L321.734,448.133 L364.779,405.088 L362.941,403.249 L389.953,376.237 L417.852,404.136 L416.013,405.975 L459.058,449.02 L464.811,443.268 L421.765,400.222 L419.927,402.061 L392.028,374.162 L425.739,340.451 L426.306,341.018 L429.806,337.519 L437.66,338.734 L464.018,311.762 L442.057,328.997 L435.122,322.062 L452.353,300.096 L425.38,326.454 L426.596,334.309 L423.096,337.809 L423.664,338.376 L423.664,338.376 Z" id="Fill-39"></path>
        </g>
    </g>
</svg>