<?xml version="1.0" encoding="UTF-8" standalone="no"?>
<svg width="120px" height="169px" viewBox="0 0 120 169" version="1.1" xmlns="http://www.w3.org/2000/svg" xmlns:xlink="http://www.w3.org/1999/xlink">
    <!-- Generator: Sketch 47.1 (45422) - http://www.bohemiancoding.com/sketch -->
    <title>logo</title>
    <desc>Created with Sketch.</desc>
    <defs></defs>
    <g id="Page-1" stroke="none" stroke-width="1" fill="none" fill-rule="evenodd">
        <g id="logo" fill-rule="nonzero" fill="#FFFFFF">
            <polyline id="Fill-1" points="60.7498462 154.635385 60 153.115692 59.2501538 154.635385 57.5735385 154.878462 58.7867692 156.061538 58.5003077 157.730769 60 156.943077 61.4996923 157.730769 61.2132308 156.061538 62.4264615 154.878462 60.7498462 154.635385"></polyline>
            <polyline id="Fill-2" points="59.2501538 11.712 57.5735385 11.9555385 58.7867692 13.1381538 58.5003077 14.808 60 14.0196923 61.4996923 14.808 61.2132308 13.1381538 62.4264615 11.9555385 60.7498462 11.712 60 10.1926154 59.2501538 11.712"></polyline>
            <path d="M118.769231,133.071385 L60,167.192308 L1.23076923,133.071385 L1.23076923,35.6216923 L60,1.50015385 L118.769231,35.6216923 L118.769231,133.071385 Z M60.3089231,0.256461538 L60,0.0769230769 L0,34.9130769 L0,133.78 L60,168.615385 L120,133.78 L120,34.9130769 L60.3089231,0.256461538 L60.3089231,0.256461538 Z" id="Fill-3"></path>
            <path d="M116,131.477077 L60,163.990769 L4,131.477077 L4,37.2158462 L60,4.70215385 L116,37.2158462 L116,131.477077 Z M3.38461538,36.8616923 L3.38461538,131.831385 L60,164.701538 L116.462154,131.920308 L116.615385,131.831385 L116.615385,36.8616923 L60,3.99061538 L3.38461538,36.8616923 L3.38461538,36.8616923 Z" id="Fill-4"></path>
            <polyline id="Fill-6" points="19.0769231 97.4233846 19.0769231 97.8849231 27.5384615 97.8849231 27.5384615 94.9618462 27.2307692 94.9618462 27.2307692 97.4233846 19.0769231 97.4233846"></polyline>
            <polyline id="Fill-7" points="26.4615385 96.6541538 26.4615385 94.5003077 20.9230769 94.5003077 20.9230769 76.9618462 18.6153846 76.9618462 18.6153846 96.6541538 26.4615385 96.6541538"></polyline>
            <path d="M35.6696923,79.7433846 C35.0558462,79.7433846 34.4615385,79.9324615 34.4615385,81.3347692 L34.4615385,92.362 C34.4615385,93.1258462 34.5910769,93.5292308 34.8598462,93.7387692 C34.8378462,93.576 34.7692308,93.3987692 34.7692308,93.2050769 L34.7692308,82.1778462 C34.7692308,80.7192308 35.4472308,80.1649231 36.4683077,80.1649231 C36.5150769,80.1649231 36.5855385,80.1664615 36.6307692,80.1689231 C36.3910769,79.8118462 36.038,79.7433846 35.6696923,79.7433846" id="Fill-8"></path>
            <path d="M41.3846154,93.0007692 L41.3846154,82.382 C41.3846154,81.1213846 41.1073846,80.0703077 40.6116923,79.2533846 C40.8295385,79.9229231 40.9230769,80.6866154 40.9230769,81.5389231 L40.9230769,92.1576923 C40.9230769,95.6886154 39.0095385,97.7136923 35.6455385,97.7136923 C34.9135385,97.7136923 34.2575385,97.6175385 33.6666154,97.4310769 C34.4163077,97.8924615 35.3715385,98.1352308 36.5046154,98.1352308 C39.6553846,98.1352308 41.3846154,96.2681538 41.3846154,93.0007692" id="Fill-9"></path>
            <path d="M35.3067692,94.7756923 C35.3063077,94.7750769 35.3553846,94.7747692 35.3547692,94.7741538 C33.8616923,94.5861538 33.6923077,93.2078462 33.6923077,92.362 L33.6923077,81.3347692 C33.6923077,79.3226154 34.7681538,78.9003077 35.7190769,78.9003077 C36.538,78.9003077 37.4575385,79.2146154 37.7066154,80.5870769 C38.0167692,80.9056923 38.1675385,81.4192308 38.1675385,82.1778462 C38.1675385,81.4192308 37.9667692,80.9056923 37.6566154,80.5870769 C37.6966154,80.8081538 37.6923077,81.0556923 37.6923077,81.3347692 L37.6923077,92.362 C37.6923077,93.2710769 37.4483077,94.7964615 35.6347692,94.7964615 C35.5138462,94.7964615 35.414,94.7886154 35.3067692,94.7756923 Z M36.5204615,77.1156923 C36.7832308,77.1156923 37.0343077,77.1393846 37.2755385,77.1775385 C37.0336923,77.1393846 36.782,77.1156923 36.5195385,77.1156923 L36.5204615,77.1156923 Z M36.4990769,95.1156923 L36.4986154,95.1156923 C37.5190769,95.1156923 38.1564615,94.5610769 38.1564615,93.1027692 C38.1564615,94.5615385 37.5201538,95.1156923 36.4990769,95.1156923 Z M38.9930769,95.6612308 C39.7492308,94.858 40.1538462,93.6793846 40.1538462,92.1576923 L40.1538462,81.5389231 C40.1538462,80.0173846 39.7492308,78.8386154 38.9930769,78.0355385 C38.8003077,77.8309231 38.5735385,77.5864615 38.3349231,77.4333846 C38.3330769,77.4329231 38.3313846,77.4323077 38.3295385,77.4318462 C37.6324615,76.986 36.7376923,76.7930769 35.6653846,76.7930769 C34.2244615,76.7930769 33.1184615,77.2164615 32.3627692,78.0189231 C31.6064615,78.8221538 31.2307692,80.0173846 31.2307692,81.5389231 L31.2307692,92.1576923 C31.2307692,93.3370769 31.4687692,94.3089231 31.9246154,95.0610769 C31.93,95.0781538 31.9373846,95.096 31.9427692,95.1129231 C32.0673846,95.3113846 32.2006154,95.4947692 32.3573846,95.6612308 C33.1130769,96.4636923 34.2343077,96.8706154 35.6752308,96.8706154 C37.1163077,96.8706154 38.2373846,96.4636923 38.9930769,95.6612308 L38.9930769,95.6612308 Z" id="Fill-10"></path>
            <polyline id="Fill-11" points="53.2203077 97.8849231 56.6153846 97.8849231 56.6153846 77.4233846 56.1538462 77.4233846 56.1538462 97.4233846 53.1064615 97.4233846 53.2203077 97.8849231"></polyline>
            <polyline id="Fill-12" points="48.7692308 97.4233846 46.3076923 97.4233846 46.3076923 97.8849231 49.2307692 97.8849231 49.2307692 87.0041538 48.7692308 85.4441538 48.7692308 97.4233846"></polyline>
            <polyline id="Fill-13" points="50.3615385 77.4233846 50.1823077 77.4233846 52.3076923 85.6792308 52.3076923 85.0152308 50.3615385 77.4233846"></polyline>
            <polyline id="Fill-14" points="49.1953846 76.9618462 45.8461538 76.9618462 45.8461538 96.6541538 47.8461538 96.6541538 47.8461538 79.0923077 49.1556923 83.7884615 52.7 96.6541538 55.2307692 96.6541538 55.2307692 76.9618462 53.2307692 76.9618462 53.2307692 92.0432308 49.3007692 77.4336923 49.1953846 76.9618462"></polyline>
            <path d="M65.9130769,80.0387692 L64.6153846,80.0387692 L64.6153846,93.7310769 L65.0769231,93.7310769 L65.0769231,80.5003077 L66.7561538,80.5003077 C66.802,80.5003077 66.8467692,80.4818462 66.8910769,80.484 C66.68,80.15 66.3381538,80.0387692 65.9130769,80.0387692" id="Fill-15"></path>
            <path d="M69.9021538,96.0195385 C69.0166154,96.97 67.6764615,97.4233846 65.9713846,97.4233846 L61.6923077,97.4233846 L61.6923077,97.8849231 L66.8144615,97.8849231 C70.0233846,97.8849231 71.5384615,96.1223077 71.5384615,92.8549231 L71.5384615,82.5278462 C71.5384615,81.2330769 71.3469231,80.1729231 70.8484615,79.3635385 C71.0647692,80.0364615 71.2307692,80.8116923 71.2307692,81.6847692 L71.2307692,92.0118462 C71.2307692,93.7626154 70.766,95.0921538 69.9021538,96.0195385" id="Fill-16"></path>
            <path d="M68,92.1576923 C68,93.2550769 67.6116923,94.5003077 65.9130769,94.5003077 L63.6923077,94.5003077 L63.6923077,79.1156923 L65.9130769,79.1156923 C66.7184615,79.1156923 67.6724615,79.4336923 67.9210769,80.7804615 C67.9290769,80.7884615 67.936,80.8104615 67.9436923,80.8186154 C67.9798462,81.0290769 68,81.2761538 68,81.5389231 L68,92.1576923 Z M68.6950769,77.7284615 C68.6895385,77.7267692 68.6712308,77.6750769 68.6656923,77.6735385 C67.9816923,77.2344615 67.0713846,76.9618462 65.9713846,76.9618462 L61.3846154,76.9618462 L61.3846154,96.6541538 L65.9713846,96.6541538 C67.4329231,96.6541538 68.6026154,96.2541538 69.3221538,95.4816923 C70.0358462,94.7155385 70.4615385,93.5424615 70.4615385,92.0118462 L70.4615385,81.6847692 C70.4615385,80.1541538 70.0358462,78.9896923 69.3221538,78.2235385 C69.1467692,78.0352308 68.916,77.8713846 68.6950769,77.7284615 L68.6950769,77.7284615 Z" id="Fill-17"></path>
            <path d="M80.33,79.7433846 C79.7163077,79.7433846 79.0769231,79.9324615 79.0769231,81.3347692 L79.0769231,92.362 C79.0769231,93.1258462 79.2833846,93.5292308 79.5521538,93.7387692 C79.5301538,93.576 79.5384615,93.3987692 79.5384615,93.2050769 L79.5384615,82.1778462 C79.5384615,80.7192308 80.1632308,80.1649231 81.1843077,80.1649231 C81.2309231,80.1649231 81.2589231,80.1664615 81.3041538,80.1689231 C81.0644615,79.8118462 80.6983077,79.7433846 80.33,79.7433846" id="Fill-18"></path>
            <path d="M80.3615385,97.7136923 C79.6295385,97.7136923 78.9469231,97.6175385 78.3558462,97.4310769 C79.1056923,97.8924615 80.1009231,98.1352308 81.234,98.1352308 C84.3846154,98.1352308 86.1538462,96.2681538 86.1538462,93.0007692 L86.1538462,82.382 C86.1538462,81.1213846 85.8766154,80.0703077 85.3809231,79.2533846 C85.5987692,79.9229231 85.6923077,80.6866154 85.6923077,81.5389231 L85.6923077,92.1576923 C85.6923077,95.6886154 83.7255385,97.7136923 80.3615385,97.7136923" id="Fill-19"></path>
            <path d="M82.4615385,92.362 C82.4615385,93.2710769 82.1641538,94.7964615 80.3506154,94.7964615 C80.2243077,94.7964615 80.0929231,94.7372308 79.9812308,94.7230769 C80.2684615,95.0324615 80.6710769,95.1156923 81.1727692,95.1156923 L81.1718462,95.1156923 C80.6701538,95.1156923 80.2147692,95.0324615 79.9273846,94.7230769 C78.4343077,94.5350769 78.1538462,93.2078462 78.1538462,92.362 L78.1538462,81.3347692 C78.1538462,79.3226154 79.3303077,78.9003077 80.2810769,78.9003077 C81.1001538,78.9003077 82.0801538,79.2146154 82.3292308,80.5870769 C82.3349231,80.5930769 82.3683077,80.5995385 82.374,80.6056923 C82.412,80.8221538 82.4615385,81.0632308 82.4615385,81.3347692 L82.4615385,92.362 Z M76.2686154,81.948 C76.3735385,78.868 78.0990769,77.1156923 81.1512308,77.1156923 L81.1515385,77.1156923 C78.0995385,77.1156923 76.3735385,78.868 76.2686154,81.948 Z M82.9856923,77.4993846 C82.9801538,77.4976923 82.9755385,77.4963077 82.97,77.4946154 C82.2736923,77.0507692 81.3892308,76.8261538 80.3195385,76.8261538 C78.8784615,76.8261538 77.7530769,77.2329231 76.9973846,78.0355385 C76.2412308,78.8386154 75.8461538,80.0173846 75.8461538,81.5389231 L75.8461538,92.1576923 C75.8461538,93.3641538 76.086,94.354 76.5627692,95.1129231 C76.3667692,94.4944615 76.2646154,93.7887692 76.2646154,93.0007692 C76.2646154,93.7887692 76.3810769,94.4944615 76.5772308,95.1129231 C76.7016923,95.3113846 76.8492308,95.4947692 77.0058462,95.6612308 C77.7615385,96.4636923 78.8807692,96.8706154 80.3218462,96.8706154 C81.7627692,96.8706154 82.8763077,96.4636923 83.632,95.6612308 C84.3883077,94.858 84.7692308,93.6793846 84.7692308,92.1576923 L84.7692308,81.5389231 C84.7692308,80.0173846 84.3883077,78.8386154 83.632,78.0355385 C83.4393846,77.8309231 83.2243077,77.6523077 82.9856923,77.4993846 L82.9856923,77.4993846 Z" id="Fill-20"></path>
            <polyline id="Fill-21" points="97.8829231 97.8849231 101.230769 97.8849231 101.230769 77.4233846 100.769231 77.4233846 100.769231 97.4233846 97.7690769 97.4233846 97.8829231 97.8849231"></polyline>
            <polyline id="Fill-22" points="90.9230769 97.4233846 90.9230769 97.8849231 93.8461538 97.8849231 93.8461538 87.0041538 93.3846154 85.4441538 93.3846154 97.4233846 90.9230769 97.4233846"></polyline>
            <polyline id="Fill-23" points="95.024 77.4233846 94.8449231 77.4233846 97.0769231 85.6792308 97.0769231 85.0152308 95.024 77.4233846"></polyline>
            <polyline id="Fill-24" points="93.858 76.9618462 90.6153846 76.9618462 90.6153846 96.6541538 92.6153846 96.6541538 92.6153846 79.0923077 93.882 83.7884615 97.3626154 96.6541538 99.8461538 96.6541538 99.8461538 76.9618462 98 76.9618462 98 92.0432308 94.0064615 77.4336923 93.858 76.9618462"></polyline>
            <path d="M21.6676923,115.149692 C21.4013846,115.149692 21.1913846,115.055846 21.0376923,114.856308 C20.8836923,114.656615 20.8069231,114.346462 20.8069231,114.038769 L18.6153846,114.038769 L18.6153846,114.301385 C18.6153846,114.708923 18.7150769,115.074923 18.8566154,115.399231 C18.9978462,115.723538 19.2141538,116.000154 19.4761538,116.228769 C19.7381538,116.457538 20.0613846,116.632308 20.4315385,116.752769 C20.8015385,116.873231 21.2230769,116.933692 21.6889231,116.933692 C22.6015385,116.933692 23.3138462,116.711231 23.8221538,116.266154 C24.3304615,115.821385 24.5858462,115.195538 24.5858462,114.388769 C24.5858462,113.848308 24.4384615,113.392923 24.1433846,113.022769 C23.8481538,112.652769 23.3515385,112.309692 22.6529231,111.993538 L21.6301538,111.532 C21.156,111.315846 20.9190769,111.041385 20.9190769,110.708769 C20.9190769,110.534 20.9924615,110.384308 21.1392308,110.259692 C21.286,110.134923 21.46,110.072462 21.6612308,110.072462 C21.8876923,110.072462 22.0615385,110.103385 22.1832308,110.228154 C22.3047692,110.352923 22.3864615,110.654154 22.4286154,110.808 L24.5243077,110.808 C24.5075385,110.654154 24.4889231,110.465231 24.4681538,110.315538 C24.4473846,110.165846 24.4161538,110.044308 24.3746154,109.919538 C24.3329231,109.794769 24.2789231,109.686308 24.2124615,109.578154 C24.1458462,109.470154 24.0627692,109.357538 23.9629231,109.232769 C23.7216923,108.941692 23.3995385,108.712923 22.9961538,108.542308 C22.5927692,108.372 22.1666154,108.287538 21.7175385,108.287538 C21.31,108.287538 20.9273846,108.350462 20.5698462,108.475231 C20.2121538,108.6 19.9024615,108.772923 19.6404615,108.993231 C19.3784615,109.213538 19.1726154,109.473538 19.0229231,109.772923 C18.8732308,110.072308 18.7984615,110.396769 18.7984615,110.746 C18.7984615,111.078769 18.8735385,111.396923 19.0236923,111.700462 C19.1738462,112.004154 19.3783077,112.259846 19.6372308,112.467538 C19.7789231,112.584154 19.9332308,112.690154 20.1001538,112.785692 C20.2669231,112.881385 20.4464615,112.970923 20.6384615,113.054 C20.7050769,113.087231 20.82,113.135077 20.9826154,113.197385 C21.1452308,113.259846 21.3518462,113.345231 21.6023077,113.453077 C21.9192308,113.577846 22.1467692,113.711077 22.2843077,113.852308 C22.422,113.993846 22.4909231,114.160154 22.4909231,114.351385 C22.4909231,114.575846 22.4118462,114.765077 22.254,114.918923 C22.0958462,115.072923 21.9003077,115.149692 21.6676923,115.149692" id="Fill-25"></path>
            <polyline id="Fill-26" points="34.9230769 116.808 34.9230769 108.500308 32.1587692 108.500308 30.5121538 113.976769 28.8653846 108.500308 26.1538462 108.500308 26.1538462 116.808 28.0795385 116.808 28.0172308 110.558154 29.8135385 116.808 31.2232308 116.808 33.0195385 110.558154 32.9447692 116.808 34.9230769 116.808"></polyline>
            <path d="M38.7703077,111.625538 C38.8866154,111.330462 39.0447692,111.074769 39.2443077,110.858308 C39.4438462,110.642308 39.6829231,110.471692 39.9615385,110.346923 C40.2401538,110.222154 40.5416923,110.159846 40.866,110.159846 C41.1903077,110.159846 41.4896923,110.222154 41.7641538,110.346923 C42.0386154,110.471692 42.2775385,110.646308 42.4815385,110.870923 C42.6852308,111.095385 42.8452308,111.357385 42.9618462,111.656769 C43.0781538,111.956154 43.1364615,112.280462 43.1364615,112.629846 C43.1364615,112.970923 43.0781538,113.290923 42.9618462,113.590308 C42.8452308,113.889846 42.6873846,114.147692 42.4876923,114.363846 C42.2881538,114.580154 42.0510769,114.750462 41.7766154,114.875231 C41.5021538,115 41.2069231,115.062462 40.8909231,115.062462 C40.5666154,115.062462 40.2629231,115 39.9803077,114.875231 C39.6975385,114.750462 39.4541538,114.578 39.2504615,114.357538 C39.0466154,114.137385 38.8866154,113.875385 38.7703077,113.571692 C38.6536923,113.268154 38.5955385,112.941692 38.5955385,112.592462 C38.5955385,112.243077 38.6536923,111.920923 38.7703077,111.625538 Z M39.1195385,116.603077 C39.6516923,116.823231 40.2255385,116.933692 40.8410769,116.933692 C41.4647692,116.933692 42.0449231,116.821385 42.5812308,116.596769 C43.1176923,116.372154 43.5833846,116.066615 43.9784615,115.679846 C44.3733846,115.293231 44.6852308,114.837846 44.914,114.313846 C45.1427692,113.79 45.2570769,113.224462 45.2570769,112.617385 C45.2570769,112.010308 45.1427692,111.442769 44.914,110.914462 C44.6852308,110.386462 44.3733846,109.929077 43.9784615,109.542308 C43.5833846,109.155538 43.1176923,108.85 42.5812308,108.625385 C42.0449231,108.400923 41.4647692,108.288615 40.8410769,108.288615 C40.2255385,108.288615 39.6516923,108.398923 39.1195385,108.619231 C38.5872308,108.839538 38.1256923,109.145231 37.7347692,109.536154 C37.3438462,109.927077 37.0363077,110.386462 36.8116923,110.914462 C36.5872308,111.442769 36.4749231,112.014462 36.4749231,112.629846 C36.4749231,113.236923 36.5872308,113.802462 36.8116923,114.326462 C37.0363077,114.850308 37.3438462,115.305692 37.7347692,115.692308 C38.1256923,116.079077 38.5872308,116.382769 39.1195385,116.603077 L39.1195385,116.603077 Z" id="Fill-27"></path>
            <polyline id="Fill-28" points="46.7692308 108.500308 46.7692308 116.808 48.9230769 116.808 48.9230769 113.178769 51.2198462 116.808 53.7149231 116.808 50.7707692 112.648 53.5401538 108.500308 51.3072308 108.500308 48.9230769 112.205692 48.9230769 108.500308 46.7692308 108.500308"></polyline>
            <polyline id="Fill-29" points="60 110.346462 60 108.500308 55.3846154 108.500308 55.3846154 116.808 60 116.808 60 114.961846 57.3846154 114.961846 57.3846154 113.423385 59.8461538 113.423385 59.8461538 111.577231 57.3846154 111.577231 57.3846154 110.346462 60 110.346462"></polyline>
            <polyline id="Fill-30" points="62.1538462 108.500308 62.1538462 116.808 64.3076923 116.808 64.3076923 113.423385 67.0769231 113.423385 67.0769231 116.808 69.0769231 116.808 69.0769231 108.500308 67.0769231 108.500308 67.0769231 111.577231 64.3076923 111.577231 64.3076923 108.500308 62.1538462 108.500308"></polyline>
            <path d="M73.0006154,111.625538 C73.1169231,111.330462 73.2750769,111.074769 73.4746154,110.858308 C73.6743077,110.642308 73.9132308,110.471692 74.192,110.346923 C74.4704615,110.222154 74.772,110.159846 75.0963077,110.159846 C75.4207692,110.159846 75.7201538,110.222154 75.9946154,110.346923 C76.2689231,110.471692 76.508,110.646308 76.7118462,110.870923 C76.9155385,111.095385 77.0755385,111.357385 77.1921538,111.656769 C77.3084615,111.956154 77.3667692,112.280462 77.3667692,112.629846 C77.3667692,112.970923 77.3084615,113.290923 77.1921538,113.590308 C77.0755385,113.889846 76.9176923,114.147692 76.7181538,114.363846 C76.5184615,114.580154 76.2815385,114.750462 76.0070769,114.875231 C75.7326154,115 75.4372308,115.062462 75.1213846,115.062462 C74.7969231,115.062462 74.4932308,115 74.2106154,114.875231 C73.9278462,114.750462 73.6846154,114.578 73.4809231,114.357538 C73.2770769,114.137385 73.1169231,113.875385 73.0006154,113.571692 C72.884,113.268154 72.826,112.941692 72.826,112.592462 C72.826,112.243077 72.884,111.920923 73.0006154,111.625538 Z M73.3498462,116.603077 C73.882,116.823231 74.4558462,116.933692 75.0713846,116.933692 C75.6952308,116.933692 76.2752308,116.821385 76.8116923,116.596769 C77.348,116.372154 77.8136923,116.066615 78.2087692,115.679846 C78.6036923,115.293231 78.9155385,114.837846 79.1444615,114.313846 C79.3730769,113.79 79.4875385,113.224462 79.4875385,112.617385 C79.4875385,112.010308 79.3730769,111.442769 79.1444615,110.914462 C78.9155385,110.386462 78.6036923,109.929077 78.2087692,109.542308 C77.8136923,109.155538 77.348,108.85 76.8116923,108.625385 C76.2752308,108.400923 75.6952308,108.288615 75.0713846,108.288615 C74.4558462,108.288615 73.882,108.398923 73.3498462,108.619231 C72.8175385,108.839538 72.356,109.145231 71.9652308,109.536154 C71.5741538,109.927077 71.2666154,110.386462 71.042,110.914462 C70.8175385,111.442769 70.7052308,112.014462 70.7052308,112.629846 C70.7052308,113.236923 70.8175385,113.802462 71.042,114.326462 C71.2666154,114.850308 71.5741538,115.305692 71.9652308,115.692308 C72.356,116.079077 72.8175385,116.382769 73.3498462,116.603077 L73.3498462,116.603077 Z" id="Fill-31"></path>
            <path d="M80.9230769,108.500308 L80.9230769,113.490615 C80.9230769,113.823231 80.9556923,114.112308 80.9849231,114.357538 C81.0138462,114.602923 81.0687692,114.825385 81.1312308,115.024923 C81.1935385,115.224615 81.2832308,115.405385 81.3913846,115.567538 C81.4993846,115.729846 81.6347692,115.89 81.7929231,116.047846 C82.0838462,116.339077 82.4303077,116.559385 82.8293846,116.709077 C83.2286154,116.858769 83.674,116.933692 84.1647692,116.933692 C85.146,116.933692 85.9321538,116.634154 86.5227692,116.035385 C86.8221538,115.727846 87.0535385,115.380462 87.1783077,114.993846 C87.3030769,114.607077 87.3846154,114.106154 87.3846154,113.490615 L87.3846154,108.500308 L85.2307692,108.500308 L85.2307692,113.490615 C85.2307692,114.072769 85.1490769,114.480308 84.9912308,114.713077 C84.8330769,114.946 84.5573846,115.062462 84.1666154,115.062462 C83.784,115.062462 83.5052308,114.937692 83.3349231,114.688154 C83.1643077,114.438615 83.0769231,114.039385 83.0769231,113.490615 L83.0769231,108.500308 L80.9230769,108.500308" id="Fill-32"></path>
            <path d="M92.1492308,115.149692 C91.8829231,115.149692 91.6730769,115.055846 91.5192308,114.856308 C91.3652308,114.656615 91.2884615,114.346462 91.2884615,114.038769 L89.2307692,114.038769 L89.2307692,114.301385 C89.2307692,114.708923 89.2635385,115.074923 89.4050769,115.399231 C89.5464615,115.723538 89.7292308,116.000154 89.9912308,116.228769 C90.2532308,116.457538 90.5596923,116.632308 90.9298462,116.752769 C91.2998462,116.873231 91.7130769,116.933692 92.1789231,116.933692 C93.0915385,116.933692 93.7995385,116.711231 94.308,116.266154 C94.8163077,115.821385 95.0695385,115.195538 95.0695385,114.388769 C95.0695385,113.848308 94.9210769,113.392923 94.626,113.022769 C94.3307692,112.652769 93.8335385,112.309692 93.1350769,111.993538 L92.1118462,111.532 C91.6378462,111.315846 91.4007692,111.041385 91.4007692,110.708769 C91.4007692,110.534 91.474,110.384308 91.6207692,110.259692 C91.7675385,110.134923 91.9416923,110.072462 92.1427692,110.072462 C92.3692308,110.072462 92.5430769,110.103385 92.6647692,110.228154 C92.7864615,110.352923 92.868,110.654154 92.9101538,110.808 L95.0058462,110.808 C94.9892308,110.654154 94.9704615,110.465231 94.9498462,110.315538 C94.9289231,110.165846 94.8976923,110.044308 94.8561538,109.919538 C94.8144615,109.794769 94.7604615,109.686308 94.694,109.578154 C94.6273846,109.470154 94.5443077,109.357538 94.4446154,109.232769 C94.2032308,108.941692 93.8810769,108.712923 93.4776923,108.542308 C93.0743077,108.372 92.6481538,108.287538 92.1990769,108.287538 C91.7915385,108.287538 91.4089231,108.350462 91.0513846,108.475231 C90.6936923,108.6 90.384,108.772923 90.122,108.993231 C89.8601538,109.213538 89.6543077,109.473538 89.5046154,109.772923 C89.3549231,110.072308 89.28,110.396769 89.28,110.746 C89.28,111.078769 89.3550769,111.396923 89.5053846,111.700462 C89.6553846,112.004154 89.8598462,112.259846 90.1187692,112.467538 C90.2604615,112.584154 90.4147692,112.690154 90.5816923,112.785692 C90.7484615,112.881385 90.928,112.970923 91.12,113.054 C91.1867692,113.087231 91.3015385,113.135077 91.4643077,113.197385 C91.6267692,113.259846 91.8333846,113.345231 92.0838462,113.453077 C92.4007692,113.577846 92.6283077,113.711077 92.7658462,113.852308 C92.9035385,113.993846 92.9724615,114.160154 92.9724615,114.351385 C92.9724615,114.575846 92.8933846,114.765077 92.7355385,114.918923 C92.5773846,115.072923 92.382,115.149692 92.1492308,115.149692" id="Fill-33"></path>
            <polyline id="Fill-34" points="101.230769 110.346462 101.230769 108.500308 96.6153846 108.500308 96.6153846 116.808 101.230769 116.808 101.230769 114.961846 98.6153846 114.961846 98.6153846 113.423385 101.230769 113.423385 101.230769 111.577231 98.6153846 111.577231 98.6153846 110.346462 101.230769 110.346462"></polyline>
            <polyline id="Fill-35" points="69.0769231 58.0387692 101.315538 57.5772308 69.0769231 57.1156923 69.0769231 58.0387692"></polyline>
            <polyline id="Fill-36" points="51.0769231 57.5772308 18.8383077 58.0387692 51.0769231 58.5003077 51.0769231 57.5772308"></polyline>
            <polygon id="Fill-37" points="18.6153846 121.115692 101.384615 121.115692 101.384615 120.500308 18.6153846 120.500308"></polygon>
            <polygon id="Fill-38" points="18.6153846 104.654154 101.384615 104.654154 101.384615 104.038769 18.6153846 104.038769"></polygon>
            <path d="M50.9756923,47.5435385 L51.2850769,47.2341538 L53.8890769,49.92 L53.6206154,50.1884615 L50.9756923,47.5435385 Z M52.9593846,50.8496923 L50.3144615,48.2047692 L50.6450769,47.8741538 L53.29,50.5190769 L52.9593846,50.8496923 Z M52.35,51.4592308 L49.6636923,48.8555385 L49.9838462,48.5353846 L52.6287692,51.1803077 L52.35,51.4592308 Z M65.1790769,52.0578462 L59.9927692,57.2441538 L54.9429231,52.1943077 L55.0301538,52.1070769 L54.5273846,51.6043077 L54.9198462,50.1289231 L50.7867692,46.0321538 L48.4906154,48.3283077 L52.5495385,52.4816923 L54.0316923,52.0961538 L54.5363077,52.6007692 L54.6236923,52.5135385 L59.6735385,57.5633846 L55.5178462,61.7190769 L55.2349231,61.4361538 L48.6126154,68.0586154 L49.4975385,68.9435385 L56.1198462,62.3212308 L55.8370769,62.0383077 L59.9927692,57.8826154 L64.2849231,62.1747692 L64.002,62.4576923 L70.6243077,69.08 L71.5093846,68.1950769 L64.8869231,61.5726154 L64.6041538,61.8555385 L60.312,57.5633846 L65.4983077,52.3770769 L65.5855385,52.4643077 L66.124,51.926 L67.3323077,52.1129231 L71.3873846,47.9633846 L68.0087692,50.6149231 L66.9418462,49.548 L69.5927692,46.1686154 L65.4430769,50.2236923 L65.6301538,51.4321538 L65.0916923,51.9706154 L65.1790769,52.0578462 L65.1790769,52.0578462 Z" id="Fill-39"></path>
        </g>
    </g>
</svg>